# AST/ASF file generated using VICON BodyLanguage
# -----------------------------------------------
:version 1.10
:name VICON
:units
  mass 1.0
  length 0.45
  angle deg
:documentation
   .ast/.asf automatically generated from VICON data using
   VICON BodyBuilder and BodyLanguage model FoxedUp or BRILLIANT.MOD
:root
   order TX TY TZ RX RY RZ
   axis XYZ
   position 0 0 0  
   orientation 0 0 0 
:bonedata
  begin
     id 1 
     name lhipjoint
     direction 0.630082 -0.636569 0.44472 
     length 2.82754 
     axis 0 0 0  XYZ
  end
  begin
     id 2 
     name lfemur
     direction 0.34202 -0.939693 0  
     length 7.26371  
     axis 0 0 20  XYZ
    dof rx ry rz
    limits (-160.0 20.0)
           (-70.0 70.0)
           (-60.0 70.0)
  end
  begin
     id 3 
     name ltibia
     direction 0.34202 -0.939693 0   
     length 7.88616   
     axis 0 0 20   XYZ
    dof rx
    limits (-10.0 170.0)
  end
  begin
     id 4 
     name lfoot
     direction 0.0603448 -0.165796 0.984312   
     length 1.77861   
     axis -90 7.62852e-016 20   XYZ
    dof rx rz
    limits (-45.0 90.0)
           (-70.0 20.0)
  end
  begin
     id 5 
     name ltoes
     direction 1.53577e-011 -4.21876e-011 1   
     length 0.902235   
     axis -90 7.62852e-016 20   XYZ
    dof rx
    limits (-90.0 20.0)
  end
  begin
     id 6 
     name rhipjoint
     direction -0.656778 -0.61817 0.431866   
     length 2.9117  
     axis 0 0 0  XYZ 
  end
  begin
     id 7 
     name rfemur
     direction -0.34202 -0.939693 0   
     length 6.81603   
     axis 0 0 -20   XYZ
    dof rx ry rz
    limits (-160.0 20.0)
           (-70.0 70.0)
           (-70.0 60.0)
  end
  begin
     id 8 
     name rtibia
     direction -0.34202 -0.939693 0   
     length 8.05997   
     axis 0 0 -20   XYZ
    dof rx
    limits (-10.0 170.0)
 end
 begin
     id 9 
     name rfoot
     direction -0.0862404 -0.236944 0.967688   
     length 1.84899  
     axis -90 -7.62852e-016 -20   XYZ
    dof rx rz
    limits (-45.0 90.0)
           (-20.0 70.0)
  end
  begin
     id 10 
     name rtoes
     direction -1.53561e-011 -4.21798e-011 1   
     length 0.931579   
     axis -90 -7.62852e-016 -20   XYZ
    dof rx
    limits (-90.0 20.0)
  end
  begin
     id 11 
     name lowerback
     direction -0.0110203 0.991769 -0.127564   
     length 2.05686   
     axis 0 0 0   XYZ
    dof rx ry rz
    limits (-20.0 45.0)
           (-30.0 30.0)
           (-30.0 30.0)
  end
  begin
     id 12 
     name upperback
     direction 0.0109719 0.99993 -0.00432479   
     length 2.06234   
     axis 0 0 0   XYZ
    dof rx ry rz
    limits (-20.0 45.0)
           (-30.0 30.0)
           (-30.0 30.0)
  end
  begin
     id 13 
     name thorax
     direction 0.0173308 0.998351 0.0547306   
     length 2.09856   
     axis 0 0 0   XYZ
    dof rx ry rz
    limits (-20.0 45.0)
           (-30.0 30.0)
           (-30.0 30.0)
  end
  begin
     id 14 
     name lowerneck
     direction -0.0311736 0.989033 0.144366   
     length 1.98151   
     axis 0 0 0   XYZ
    dof rx ry rz
    limits (-20.0 45.0)
           (-30.0 30.0)
           (-30.0 30.0)
  end
  begin
     id 15 
     name upperneck
     direction 0.0421057 0.975772 -0.214698   
     length 2.01457   
     axis 0 0 0   XYZ
    dof rx ry rz
    limits (-20.0 45.0)
           (-30.0 30.0)
           (-30.0 30.0)
  end
  begin
     id 16
     name head
     direction 0.0136911 0.995958 -0.0887718  
     length 2.03562  
     axis 0 0 0   XYZ
    dof rx ry rz
    limits (-20.0 45.0)
           (-30.0 30.0)
           (-30.0 30.0)
  end
  begin
     id 17 
     name lclavicle
     direction 0.915335 0.396201 0.0720134  
     length 4.16217  
     axis 0 0 0   XYZ
    dof ry rz
    limits (-20.0 10.0)
           (0.0 20.0)
  end
  begin
     id 18 
     name lhumerus
     direction 1 -4.48965e-011 6.383e-018   
     length 4.93042   
     axis -180 -30 -90   XYZ
    dof rx ry rz
    limits (-60.0 90.0)
           (-90.0 90.0)
           (-90.0 90.0)
  end
  begin
     id 19
     name lradius
     direction 1 -4.48972e-011 8.8689e-027   
     length 3.68177   
     axis -180 -30 -90   XYZ
    dof rx
    limits (-10.0 170.0)
  end
  begin
     id 20
     name lwrist
     direction 1 -4.48953e-011 1.17971e-026   
     length 1.84089   
     axis -7.69454e-015 90 90   XYZ
    dof ry
    limits (-180.0 0.0)
 end
  begin
     id 21 
     name lhand
     direction 1 -4.49027e-011 2.35802e-026   
     length 0.721479   
     axis -1.50533e-014 90 90   XYZ
    dof rx rz
    limits (-90.0 90.0)
           (-45.0 45.0)
  end
  begin
     id 22 
     name lfingers
     direction 1 -4.48915e-011 4.72027e-026   
     length 0.581675   
     axis -3.01059e-014 90 90   XYZ
    dof rx
    limits (0.0 90.0)
  end
  begin
     id 23
     name lthumb
     direction 0.707107 -6.34948e-011 0.707107   
     length 0.835172   
     axis -90 45 -5.12164e-014   XYZ
    dof rx rz
    limits (-45.0 45.0)
           (-45.0 45.0)
  end
  begin
     id 24 
     name rclavicle
     direction -0.882781 0.469197 0.0234974   
     length 3.95647  
     axis 0 0 0   XYZ 
    dof ry rz
    limits (-10.0 20.0)
           (-20.0 0.0)
  end
  begin
     id 25 
     name rhumerus
     direction -1 -4.48965e-011 -1.54906e-018  
     length 5.07905   
     axis -180 30 90   XYZ
    dof rx ry rz
    limits (-90.0 60.0)
           (-90.0 90.0)
           (-90.0 90.0)
  end
  begin
     id 26 
     name rradius
     direction -1 -4.48972e-011 5.47489e-027   
     length 3.54394   
     axis -180 30 90   XYZ
    dof rx
    limits (-10.0 170.0)
  end
  begin
     id 27 
     name rwrist
     direction -1 -4.48955e-011 1.17969e-026   
     length 1.77197   
     axis -7.69454e-015 -90 -90   XYZ
    dof ry
    limits (-180.0 0.0)
  end
  begin
     id 28
     name rhand
     direction -1 -4.48982e-011 2.35888e-026   
     length 0.681156   
     axis -1.50533e-014 -90 -90   XYZ
    dof rx rz
    limits (-90.0 90.0)
           (-45.0 45.0)
  end
  begin
     id 29
     name rfingers
     direction -1 -4.48955e-011 4.71877e-026   
     length 0.549165   
     axis -3.01059e-014 -90 -90   XYZ
    dof rx
    limits (0.0 90.0)
  end
  begin
     id 30
     name rthumb
     direction -0.707107 -6.3491e-011 0.707107   
     length 0.788495   
     axis -90 -45 5.12164e-014   XYZ
    dof rx rz
    limits (-45.0 45.0)
           (-45.0 45.0)
  end
:hierarchy
  begin
    root lhipjoint rhipjoint lowerback
    lhipjoint lfemur
    lfemur ltibia
    ltibia lfoot
    lfoot ltoes
    rhipjoint rfemur
    rfemur rtibia
    rtibia rfoot
    rfoot rtoes
    lowerback upperback
    upperback thorax
    thorax lowerneck lclavicle rclavicle
    lowerneck upperneck
    upperneck head
    lclavicle lhumerus
    lhumerus lradius
    lradius lwrist
    lwrist lhand lthumb
    lhand lfingers
    rclavicle rhumerus
    rhumerus rradius
    rradius rwrist
    rwrist rhand rthumb
    rhand rfingers
  end

#!OML:ASF H:\Bending\Project 1\Capture day 1\Session 1\Subject.ASF
:FULLY-SPECIFIED
:DEGREES
144
root -10.6263 18.1921 -16.5157 -168.594 84.0569 -179.48
lowerback 14.0166 -0.480289 1.22393
upperback 0.10357 -0.20036 2.22018
thorax -7.76794 -0.0725618 1.71017
lowerneck -23.5632 -5.14031 -8.92009
upperneck 26.6286 -5.70989 6.49591
head 13.3744 -2.4255 3.02574
rclavicle 5.1684e-015 -3.02153e-014
rhumerus -34.0633 32.4236 -90.6187
rradius 80.8286
rwrist 3.90352
rhand -35.6148 -39.286
rfingers 7.12502
rthumb -8.73814 -69.0852
lclavicle 5.1684e-015 -3.02153e-014
lhumerus -29.3032 -38.0071 100.045
lradius 81.8696
lwrist 23.7694
lhand -39.4993 28.2651
lfingers 7.12502
lthumb -12.4851 57.8721
rfemur -2.60222 -4.10638 15.2442
rtibia 1.59028e-015
rfoot -6.01747 -18.0278
rtoes -2.75517
lfemur -17.2746 -10.691 -11.4263
ltibia 21.7969
lfoot -17.0063 2.41947
ltoes 16.8008
145
root -10.5576 18.1806 -16.5226 -168.601 84.0731 -178.998
lowerback 13.0995 -0.541685 1.14566
upperback -0.310169 -0.317061 2.2712
thorax -7.69125 -0.130262 1.82556
lowerneck -23.5126 -5.12001 -8.96941
upperneck 27.218 -5.64 6.39426
head 13.6025 -2.40901 3.02271
rclavicle -1.05356e-014 3.02153e-014
rhumerus -34.668 31.3018 -90.9513
rradius 82.2801
rwrist 4.74074
rhand -35.3061 -39.0707
rfingers 7.12502
rthumb -8.44018 -68.8821
lclavicle -1.05356e-014 3.02153e-014
lhumerus -30.5328 -37.5542 100.408
lradius 83.5525
lwrist 24.0045
lhand -39.4512 28.1595
lfingers 7.12502
lthumb -12.4387 57.7693
rfemur -1.77101 -4.03991 15.2593
rtibia 3.18055e-015
rfoot -6.41403 -18.0926
rtoes -2.67155
lfemur -16.294 -11.1895 -11.5024
ltibia 21.5596
lfoot -17.4656 2.73522
ltoes 17.0377
146
root -10.495 18.1665 -16.5248 -168.455 84.1059 -178.326
lowerback 12.3106 -0.572673 1.05765
upperback -0.662845 -0.389039 2.31101
thorax -7.61946 -0.164442 1.92481
lowerneck -23.4762 -5.10747 -8.98109
upperneck 27.6994 -5.59114 6.28959
head 13.7911 -2.39922 3.00526
rclavicle 8.54774e-015 5.56597e-015
rhumerus -35.0868 30.1444 -91.1346
rradius 83.7252
rwrist 5.68213
rhand -34.906 -38.9456
rfingers 7.12502
rthumb -8.05408 -68.7721
lclavicle 8.54774e-015 5.56597e-015
lhumerus -31.5653 -37.1046 100.656
lradius 85.1445
lwrist 24.3031
lhand -39.4023 27.9745
lfingers 7.12502
lthumb -12.3916 57.5873
rfemur -0.92663 -3.94952 15.3012
rtibia -9.54166e-015
rfoot -6.84891 -18.1379
rtoes -2.13625
lfemur -15.3244 -11.5749 -11.5649
ltibia 21.3746
lfoot -17.8764 2.96519
ltoes 17.158
147
root -10.4381 18.1509 -16.5237 -168.184 84.152 -177.512
lowerback 11.6159 -0.572549 0.96962
upperback -0.961678 -0.415659 2.33937
thorax -7.54262 -0.175639 2.0031
lowerneck -23.4115 -5.09876 -8.95926
upperneck 28.0555 -5.55748 6.1744
head 13.9218 -2.39541 2.97176
rclavicle -6.55989e-015 6.52014e-014
rhumerus -35.3333 29.0197 -91.1858
rradius 85.1165
rwrist 6.61394
rhand -34.4452 -38.8767
rfingers 7.12502
rthumb -7.60932 -68.7198
lclavicle -6.55989e-015 6.52014e-014
lhumerus -32.3853 -36.6359 100.816
lradius 86.5899
lwrist 24.7093
lhand -39.3718 27.7174
lfingers 7.12502
lthumb -12.3622 57.3319
rfemur -0.0861698 -3.84176 15.3616
rtibia 7.95139e-015
rfoot -7.32561 -18.1642
rtoes -1.24871
lfemur -14.38 -11.8698 -11.6185
ltibia 21.2324
lfoot -18.2485 3.14789
ltoes 17.0509
148
root -10.3863 18.1347 -16.5215 -167.867 84.2146 -176.649
lowerback 10.9839 -0.546714 0.890906
upperback -1.21981 -0.404086 2.35728
thorax -7.45778 -0.16804 2.05832
lowerneck -23.2926 -5.08838 -8.92547
upperneck 28.3064 -5.52629 6.05262
head 13.9963 -2.39378 2.93057
rclavicle 6.85807e-015 5.40694e-014
rhumerus -35.4249 27.9971 -91.1429
rradius 86.395
rwrist 7.39579
rhand -33.9675 -38.8183
rfingers 7.12502
rthumb -7.14822 -68.6776
lclavicle 6.85807e-015 5.40694e-014
lhumerus -32.9919 -36.1152 100.927
lradius 87.8514
lwrist 25.2396
lhand -39.3835 27.4269
lfingers 7.12502
lthumb -12.3734 57.0407
rfemur 0.73441 -3.71745 15.4231
rtibia 1.27222e-014
rfoot -7.83242 -18.1724
rtoes -0.184176
lfemur -13.4698 -12.1039 -11.678
ltibia 21.126
lfoot -18.5974 3.32285
ltoes 16.6845
149
root -10.3389 18.1186 -16.5204 -167.601 84.3039 -175.847
lowerback 10.3932 -0.50255 0.826719
upperback -1.45078 -0.36439 2.36488
thorax -7.36751 -0.146974 2.09009
lowerneck -23.1231 -5.07429 -8.90698
upperneck 28.5003 -5.48887 5.93912
head 14.0362 -2.3909 2.89543
rclavicle 2.03754e-014 4.21423e-014
rhumerus -35.4205 27.0882 -91.0565
rradius 87.5411
rwrist 7.94719
rhand -33.5244 -38.7549
rfingers 7.12502
rthumb -6.72048 -68.6282
lclavicle 2.03754e-014 4.21423e-014
lhumerus -33.3955 -35.5236 101.024
lradius 88.9138
lwrist 25.8771
lhand -39.4567 27.1576
lfingers 7.12502
lthumb -12.444 56.7671
rfemur 1.52128 -3.57046 15.4653
rtibia 6.36111e-015
rfoot -8.34363 -18.1648
rtoes 0.865384
lfemur -12.5962 -12.3047 -11.7611
ltibia 21.0484
lfoot -18.9369 3.51775
ltoes 16.1206
150
root -10.2954 18.103 -16.5217 -167.483 84.4296 -175.215
lowerback 9.83254 -0.446901 0.776539
upperback -1.66505 -0.306553 2.35987
thorax -7.27658 -0.117473 2.09845
lowerneck -22.9331 -5.05955 -8.92113
upperneck 28.6922 -5.44662 5.85058
head 14.0727 -2.38609 2.87712
rclavicle 8.94531e-015 -1.19271e-014
rhumerus -35.2648 26.3947 -90.9596
rradius 88.4742
rwrist 8.17886
rhand -33.1161 -38.6471
rfingers 7.12502
rthumb -6.32631 -68.5326
lclavicle 8.94531e-015 -1.19271e-014
lhumerus -33.6149 -34.8717 101.126
lradius 89.7823
lwrist 26.5806
lhand -39.5946 26.9563
lfingers 7.12502
lthumb -12.5769 56.5578
rfemur 2.26116 -3.39435 15.4724
rtibia 1.59028e-015
rfoot -8.82356 -18.1477
rtoes 1.7345
lfemur -11.7593 -12.4906 -11.8816
ltibia 20.9904
lfoot -19.2725 3.7405
ltoes 15.4857
151
root -10.2556 18.0882 -16.5254 -167.587 84.5908 -174.84
lowerback 9.29717 -0.385639 0.735619
upperback -1.86964 -0.239676 2.33844
thorax -7.18956 -0.083963 2.08384
lowerneck -22.7622 -5.05076 -8.96737
upperneck 28.9233 -5.40992 5.79656
head 14.1335 -2.38174 2.87822
rclavicle 8.64713e-015 -9.54166e-015
rhumerus -35.0202 25.8513 -90.8822
rradius 89.2308
rwrist 8.17497
rhand -32.7504 -38.5285
rfingers 7.12502
rthumb -5.97324 -68.4243
lclavicle 8.64713e-015 -9.54166e-015
lhumerus -33.6748 -34.1995 101.227
lradius 90.4785
lwrist 27.304
lhand -39.7851 26.8403
lfingers 7.12502
lthumb -12.7606 56.4304
rfemur 2.94054 -3.19213 15.4388
rtibia -9.54166e-015
rfoot -9.23578 -18.131
rtoes 2.31734
lfemur -10.9645 -12.6684 -12.0429
ltibia 20.9406
lfoot -19.598 3.97803
ltoes 14.9213
152
root -10.2195 18.0746 -16.5309 -167.954 84.7708 -174.772
lowerback 8.78395 -0.324006 0.698705
upperback -2.06968 -0.171811 2.2975
thorax -7.10994 -0.0503017 2.04737
lowerneck -22.6386 -5.0545 -9.02883
upperneck 29.2072 -5.39199 5.77345
head 14.2314 -2.38183 2.89205
rclavicle 4.96962e-015 -2.22639e-014
rhumerus -34.7663 25.3411 -90.8404
rradius 89.8831
rwrist 8.08326
rhand -33.1932 -40.5607
rfingers 7.12502
rthumb -6.40075 -70.444
lclavicle 4.96962e-015 -2.22639e-014
lhumerus -33.6048 -33.5628 101.309
lradius 91.0329
lwrist 28.0094
lhand -40.0079 26.7853
lfingers 7.12502
lthumb -12.9754 56.3618
rfemur 3.54658 -2.98102 15.3705
rtibia -7.95139e-015
rfoot -9.55257 -18.1265
rtoes 2.57408
lfemur -10.2265 -12.8349 -12.2355
ltibia 20.8888
lfoot -19.8984 4.20373
ltoes 14.5295
153
root -10.1867 18.0622 -16.5369 -168.568 84.9421 -175.007
lowerback 8.28927 -0.266403 0.662144
upperback -2.26931 -0.109287 2.23735
thorax -7.03984 -0.0194483 1.99238
lowerneck -22.5672 -5.0737 -9.08156
upperneck 29.5318 -5.40069 5.76471
head 14.3617 -2.38948 2.90595
rclavicle 7.50412e-015 1.59028e-015
rhumerus -34.4965 24.8434 -90.823
rradius 90.4539
rwrist 7.97652
rhand -32.8639 -40.529
rfingers 7.12502
rthumb -6.08285 -70.4217
lclavicle 7.50412e-015 1.59028e-015
lhumerus -33.4354 -33.0119 101.355
lradius 91.4773
lwrist 28.6713
lhand -40.2452 26.7335
lfingers 7.12502
lthumb -13.2042 56.2954
rfemur 4.07115 -2.78736 15.2827
rtibia -1.43125e-014
rfoot -9.76518 -18.1422
rtoes 2.53538
lfemur -9.56599 -12.9803 -12.4401
ltibia 20.8304
lfoot -20.1578 4.38971
ltoes 14.3404
154
root -10.1572 18.0512 -16.5421 -169.344 85.0798 -175.466
lowerback 7.81042 -0.215467 0.624763
upperback -2.47113 -0.0552818 2.16336
thorax -6.98044 0.00724143 1.92551
lowerneck -22.534 -5.10595 -9.10572
upperneck 29.8716 -5.43344 5.74665
head 14.5091 -2.40495 2.90665
rclavicle 9.93923e-016 5.56597e-015
rhumerus -34.2108 24.3418 -90.8124
rradius 90.9622
rwrist 7.88986
rhand -32.5209 -40.5406
rfingers 7.12502
rthumb -5.75166 -70.4426
lclavicle 9.93923e-016 5.56597e-015
lhumerus -33.1941 -32.5741 101.354
lradius 91.8392
lwrist 29.2722
lhand -40.4874 26.6086
lfingers 7.12502
lthumb -13.4376 56.1552
rfemur 4.51482 -2.63394 15.1933
rtibia -9.54166e-015
rfoot -9.88881 -18.1774
rtoes 2.29635
lfemur -8.99996 -13.0947 -12.6349
ltibia 20.7691
lfoot -20.3682 4.51952
ltoes 14.3207
